<svg id="svg" version="1.1" viewBox="0 0 300 300" width="300" height="300" xmlns="http://www.w3.org/2000/svg"><svg xmlns="http://www.w3.org/2000/svg"><defs><clipPath id="clip-1"><rect x="0" y="0" transform="scale(0.1875,0.1875)" width="1600" height="1600" fill="none"/></clipPath></defs><g clip-path="url(#clip-1)" fill="none" fill-rule="nonzero" stroke="none" stroke-width="1" stroke-linecap="butt" stroke-linejoin="miter" stroke-miterlimit="10" stroke-dasharray="" stroke-dashoffset="0" font-family="none" font-weight="none" font-size="none" text-anchor="none" style="mix-blend-mode: normal"><path d="M87.01406,26.38969c1.60481,0.93863 11.59463,11.88075 13.64981,14.04937c-0.69731,1.32994 -2.6145,3.47137 -3.60731,4.75594c-2.89706,3.74813 -5.95781,7.32881 -9.00675,10.94738l-20.45437,24.555c-8.12306,9.73931 -7.41469,6.53287 -7.16213,19.7025c2.01244,-1.17187 3.95494,-2.66194 5.93081,-3.90919c6.53644,-4.12631 12.75825,-8.61075 19.20412,-12.90375l28.341,-18.58181c3.4935,-2.30906 34.07419,-23.12944 36.18956,-23.53613c1.98637,0.76781 6.14344,3.86775 8.17369,5.22281c5.87981,3.92437 13.2,8.24025 18.83681,12.36769c-1.89787,2.01225 -4.98731,3.52744 -7.42031,5.17969c-7.96294,5.40825 -16.14113,10.58325 -24.18994,15.85219l-64.50075,42.65363l-13.50938,8.85206c-2.09344,1.35094 -4.88531,2.84419 -6.71456,4.46606c-0.99881,0.88556 -0.57694,4.13625 -0.483,5.51006c0.11719,0.70331 0.08494,4.99725 0.08681,5.97675l0.01238,12.9915l21.82781,0.06188c2.86519,0.00637 8.82206,0.18712 11.445,-0.13575c0.37219,13.72275 -0.1605,27.95681 0.05625,41.72306c0.08981,5.70563 -0.18525,11.98688 0.1665,17.63063c-1.90519,-0.17437 -5.03794,-0.09938 -7.04663,-0.10125l-11.81681,-0.00375c-14.05819,0.135 -28.11731,0.14437 -42.17587,0.03c-0.17325,-2.10937 -0.04556,-5.69063 -0.03544,-7.89l-0.00206,-13.55063l-0.12244,-43.90481l-17.62275,11.87062c-3.24986,2.15081 -8.74899,5.55469 -11.71363,7.75256c-0.20471,-1.647 -0.16656,-4.45087 -0.17447,-6.15713l-0.01671,-10.20675l-0.00208,-11.15138c0.00127,-2.61244 -0.13208,-5.69156 0.33583,-8.21925c1.53804,-1.26525 5.37154,-3.6795 7.21044,-4.92225c3.97487,-2.74369 7.9752,-5.45044 12.00049,-8.1195c3.11925,-2.06438 7.03294,-4.518 9.96637,-6.75675c0.25275,-2.36006 -0.00788,-7.71825 0.0195,-10.38806c0.08025,-7.85362 -0.21263,-15.85031 0.16763,-23.69944c0.79106,-1.18444 3.24788,-3.65194 4.407,-4.9515c6.35719,-7.12856 13.14975,-14.03494 19.67419,-20.99512l22.05338,-23.54962c2.80425,-2.946 4.97944,-5.83875 8.022,-8.51756z" fill="#125950"/><path d="M189.02813,67.84894c0.045,-0.00113 0.09,-0.00544 0.135,-0.003c2.01563,0.10388 16.6875,10.40663 19.36125,12.17194l61.02562,40.38469l18.75563,12.31575c2.52187,1.64888 5.53875,3.27938 7.82437,5.25244c0.83812,1.23019 0.71812,4.36163 0.69563,5.67413c-0.17437,10.15294 0.1875,20.36812 -0.02438,30.5055c-6.62062,-4.59338 -13.665,-8.86856 -20.27812,-13.53019c-2.8575,-2.01375 -6.21187,-4.34981 -9.20812,-6.10819c0.17062,10.00012 0.22688,20.00175 0.1725,30.00319c-0.01687,7.49044 0.16125,14.93044 -0.03187,22.44731c-0.15188,5.84063 0.11625,11.85375 -0.02062,17.70375c-0.03562,1.55063 -0.31875,3.36188 -1.31813,4.56937c-2.77312,3.35063 -5.85188,6.69188 -8.71312,9.96563l-16.8975,19.67625l-19.49625,23.0625c-2.78625,3.30937 -7.48312,9.38438 -10.36687,11.99438l-2.12625,-1.75313c-2.6025,-2.31937 -9.93375,-9.44062 -11.93437,-11.98312c3.61125,-5.17313 8.05125,-10.72125 11.83687,-15.82687l23.1525,-31.695c1.40625,-1.95 7.66688,-9.8625 7.83,-11.33812c0.50625,-4.62187 0.2475,-15.1125 0.23625,-19.80187c-9.09188,0.06563 -17.97375,-0.26625 -27.05063,-0.19313c-2.13562,0.01688 -4.19437,-0.18187 -6.33562,-0.135c0.32625,-13.64812 -0.18375,-27.7425 0.00938,-41.42812c0.08062,-5.55319 -0.24188,-12.30281 0.14063,-17.7405c12.33187,0.14644 24.74062,-0.26531 37.08187,0.04631c1.3725,0.0345 2.70188,0.15844 4.08187,0.14137l-0.03375,-0.34819c-1.57125,-1.79212 -6.88313,-4.72969 -9.0675,-6.21431c-2.20312,-1.49738 -4.73063,-3.18225 -6.96375,-4.67175l-40.6275,-26.96756c-5.63306,-3.64725 -11.23444,-7.34419 -16.80281,-11.09062c-3.12113,-2.06944 -7.77356,-5.00194 -10.63256,-7.27594c1.30163,-1.39331 2.48325,-1.98338 3.95456,-3.10462c3.498,-2.66587 7.14206,-4.92394 10.77956,-7.37588c3.56137,-2.40037 7.07213,-5.28038 10.85625,-7.32937z" fill="#125950"/><path d="M111.50344,135.73481c3.99131,-0.59906 9.73725,-0.19275 14.20519,-0.1485c7.92881,0.11625 16.25119,-0.46594 24.11025,0.42056c0.61388,0.06938 7.7415,5.07787 8.95538,5.85094c9.45638,6.02194 18.73256,12.34931 28.10475,18.49969c0.52144,0.34219 0.92288,0.81431 1.3035,1.30256c0.5925,3.63188 0.44437,9.054 0.435,12.8625l-0.0525,18.01744l0.03938,33.41437c0,2.6925 0.27562,15.02438 -0.40125,16.83l-0.26812,0.23813c-1.83881,-0.65625 -8.21606,-5.19937 -10.15912,-6.44063c-9.26813,-5.92687 -18.58781,-12.90187 -28.00069,-18.48c-0.51244,-3.65625 -0.7395,-6.28125 -0.56063,-9.88313c0.09806,-1.97438 0.86681,-14.64375 0.41494,-15.4275c-0.94875,-0.3825 -3.2655,-0.39375 -4.39087,-0.43875c-2.31769,0.22125 -8.06231,0.07687 -10.70738,0.08812l-23.13112,0.05813c-0.28613,-3.95813 -0.83475,-3.7125 -0.09169,-8.10488c0.23606,-2.92556 0.03844,-6.92419 0.11213,-9.969c0.22463,-9.29269 -0.23156,-18.69675 -0.06769,-27.96806c0.05269,-2.98969 -0.21544,-7.96631 0.15056,-10.722z" fill="#d7a23c"/><path d="M111.30844,184.39387c0.3165,1.63481 -0.00506,6.05738 0.80569,6.93675c4.78256,1.19063 32.33812,0.39 33.1245,1.02188c-2.31769,0.22125 -8.06231,0.07687 -10.70738,0.08812l-23.13112,0.05813c-0.28613,-3.95813 -0.83475,-3.7125 -0.09169,-8.10488z" fill="#c89746"/></g></svg></svg>